<svg width="213" height="48" viewBox="0 0 213 48" fill="none" xmlns="http://www.w3.org/2000/svg">
<path d="M69.716 20.672C69.716 21.8107 69.4547 22.856 68.932 23.808C68.4093 24.7413 67.6067 25.4973 66.524 26.076C65.4413 26.6547 64.0973 26.944 62.492 26.944H59.524V34H54.736V14.344H62.492C64.06 14.344 65.3853 14.6147 66.468 15.156C67.5507 15.6973 68.3627 16.444 68.904 17.396C69.4453 18.348 69.716 19.44 69.716 20.672ZM62.128 23.136C63.0427 23.136 63.724 22.9213 64.172 22.492C64.62 22.0627 64.844 21.456 64.844 20.672C64.844 19.888 64.62 19.2813 64.172 18.852C63.724 18.4227 63.0427 18.208 62.128 18.208H59.524V23.136H62.128ZM76.1567 13.28V34H71.3687V13.28H76.1567ZM77.8345 26.16C77.8345 24.5547 78.1331 23.1453 78.7305 21.932C79.3465 20.7187 80.1771 19.7853 81.2225 19.132C82.2678 18.4787 83.4345 18.152 84.7225 18.152C85.8238 18.152 86.7851 18.376 87.6065 18.824C88.4465 19.272 89.0905 19.86 89.5385 20.588V18.376H94.3265V34H89.5385V31.788C89.0718 32.516 88.4185 33.104 87.5785 33.552C86.7571 34 85.7958 34.224 84.6945 34.224C83.4251 34.224 82.2678 33.8973 81.2225 33.244C80.1771 32.572 79.3465 31.6293 78.7305 30.416C78.1331 29.184 77.8345 27.7653 77.8345 26.16ZM89.5385 26.188C89.5385 24.9933 89.2025 24.0507 88.5305 23.36C87.8771 22.6693 87.0745 22.324 86.1225 22.324C85.1705 22.324 84.3585 22.6693 83.6865 23.36C83.0331 24.032 82.7065 24.9653 82.7065 26.16C82.7065 27.3547 83.0331 28.3067 83.6865 29.016C84.3585 29.7067 85.1705 30.052 86.1225 30.052C87.0745 30.052 87.8771 29.7067 88.5305 29.016C89.2025 28.3253 89.5385 27.3827 89.5385 26.188ZM112.91 18.376L103.11 41.42H97.9584L101.542 33.468L95.1864 18.376H100.534L104.146 28.148L107.73 18.376H112.91ZM120.914 34.196C119.476 34.196 118.188 33.9627 117.05 33.496C115.911 33.0293 114.996 32.3387 114.306 31.424C113.634 30.5093 113.279 29.408 113.242 28.12H118.338C118.412 28.848 118.664 29.408 119.094 29.8C119.523 30.1733 120.083 30.36 120.774 30.36C121.483 30.36 122.043 30.2013 122.454 29.884C122.864 29.548 123.07 29.0907 123.07 28.512C123.07 28.0267 122.902 27.6253 122.566 27.308C122.248 26.9907 121.847 26.7293 121.362 26.524C120.895 26.3187 120.223 26.0853 119.346 25.824C118.076 25.432 117.04 25.04 116.238 24.648C115.435 24.256 114.744 23.6773 114.166 22.912C113.587 22.1467 113.298 21.148 113.298 19.916C113.298 18.0867 113.96 16.6587 115.286 15.632C116.611 14.5867 118.338 14.064 120.466 14.064C122.631 14.064 124.376 14.5867 125.702 15.632C127.027 16.6587 127.736 18.096 127.83 19.944H122.65C122.612 19.3093 122.379 18.8147 121.95 18.46C121.52 18.0867 120.97 17.9 120.298 17.9C119.719 17.9 119.252 18.0587 118.898 18.376C118.543 18.6747 118.366 19.1133 118.366 19.692C118.366 20.3267 118.664 20.8213 119.262 21.176C119.859 21.5307 120.792 21.9133 122.062 22.324C123.331 22.7533 124.358 23.164 125.142 23.556C125.944 23.948 126.635 24.5173 127.214 25.264C127.792 26.0107 128.082 26.972 128.082 28.148C128.082 29.268 127.792 30.2853 127.214 31.2C126.654 32.1147 125.832 32.8427 124.75 33.384C123.667 33.9253 122.388 34.196 120.914 34.196ZM134.976 20.588C135.443 19.86 136.087 19.272 136.908 18.824C137.73 18.376 138.691 18.152 139.792 18.152C141.08 18.152 142.247 18.4787 143.292 19.132C144.338 19.7853 145.159 20.7187 145.756 21.932C146.372 23.1453 146.68 24.5547 146.68 26.16C146.68 27.7653 146.372 29.184 145.756 30.416C145.159 31.6293 144.338 32.572 143.292 33.244C142.247 33.8973 141.08 34.224 139.792 34.224C138.71 34.224 137.748 34 136.908 33.552C136.087 33.104 135.443 32.5253 134.976 31.816V41.448H130.188V18.376H134.976V20.588ZM141.808 26.16C141.808 24.9653 141.472 24.032 140.8 23.36C140.147 22.6693 139.335 22.324 138.364 22.324C137.412 22.324 136.6 22.6693 135.928 23.36C135.275 24.0507 134.948 24.9933 134.948 26.188C134.948 27.3827 135.275 28.3253 135.928 29.016C136.6 29.7067 137.412 30.052 138.364 30.052C139.316 30.052 140.128 29.7067 140.8 29.016C141.472 28.3067 141.808 27.3547 141.808 26.16ZM147.4 26.16C147.4 24.5547 147.699 23.1453 148.296 21.932C148.912 20.7187 149.743 19.7853 150.788 19.132C151.834 18.4787 153 18.152 154.288 18.152C155.39 18.152 156.351 18.376 157.172 18.824C158.012 19.272 158.656 19.86 159.104 20.588V18.376H163.892V34H159.104V31.788C158.638 32.516 157.984 33.104 157.144 33.552C156.323 34 155.362 34.224 154.26 34.224C152.991 34.224 151.834 33.8973 150.788 33.244C149.743 32.572 148.912 31.6293 148.296 30.416C147.699 29.184 147.4 27.7653 147.4 26.16ZM159.104 26.188C159.104 24.9933 158.768 24.0507 158.096 23.36C157.443 22.6693 156.64 22.324 155.688 22.324C154.736 22.324 153.924 22.6693 153.252 23.36C152.599 24.032 152.272 24.9653 152.272 26.16C152.272 27.3547 152.599 28.3067 153.252 29.016C153.924 29.7067 154.736 30.052 155.688 30.052C156.64 30.052 157.443 29.7067 158.096 29.016C158.768 28.3253 159.104 27.3827 159.104 26.188ZM165.564 26.188C165.564 24.564 165.891 23.1453 166.544 21.932C167.216 20.7187 168.14 19.7853 169.316 19.132C170.511 18.4787 171.873 18.152 173.404 18.152C175.364 18.152 176.997 18.6653 178.304 19.692C179.629 20.7187 180.497 22.1653 180.908 24.032H175.812C175.383 22.8373 174.552 22.24 173.32 22.24C172.443 22.24 171.743 22.5853 171.22 23.276C170.697 23.948 170.436 24.9187 170.436 26.188C170.436 27.4573 170.697 28.4373 171.22 29.128C171.743 29.8 172.443 30.136 173.32 30.136C174.552 30.136 175.383 29.5387 175.812 28.344H180.908C180.497 30.1733 179.629 31.6107 178.304 32.656C176.979 33.7013 175.345 34.224 173.404 34.224C171.873 34.224 170.511 33.8973 169.316 33.244C168.14 32.5907 167.216 31.6573 166.544 30.444C165.891 29.2307 165.564 27.812 165.564 26.188ZM197.357 25.936C197.357 26.384 197.329 26.8507 197.273 27.336H186.437C186.512 28.3067 186.82 29.0533 187.361 29.576C187.921 30.08 188.603 30.332 189.405 30.332C190.6 30.332 191.431 29.828 191.897 28.82H196.993C196.732 29.8467 196.256 30.7707 195.565 31.592C194.893 32.4133 194.044 33.0573 193.017 33.524C191.991 33.9907 190.843 34.224 189.573 34.224C188.043 34.224 186.68 33.8973 185.485 33.244C184.291 32.5907 183.357 31.6573 182.685 30.444C182.013 29.2307 181.677 27.812 181.677 26.188C181.677 24.564 182.004 23.1453 182.657 21.932C183.329 20.7187 184.263 19.7853 185.457 19.132C186.652 18.4787 188.024 18.152 189.573 18.152C191.085 18.152 192.429 18.4693 193.605 19.104C194.781 19.7387 195.696 20.644 196.349 21.82C197.021 22.996 197.357 24.368 197.357 25.936ZM192.457 24.676C192.457 23.8547 192.177 23.2013 191.617 22.716C191.057 22.2307 190.357 21.988 189.517 21.988C188.715 21.988 188.033 22.2213 187.473 22.688C186.932 23.1547 186.596 23.8173 186.465 24.676H192.457Z" fill="white"/>
<path d="M14.778 19.4497C20.5389 16.6945 25.0474 12.019 27.6357 6.17457C25.9658 4.42125 23.7951 3.16888 21.4573 2.41746L20.2049 2C20.1214 2.16698 20.0379 2.41747 20.0379 2.58445C18.0342 8.26187 13.9431 12.8539 8.43264 15.4421C4.59203 17.2789 1.75332 20.6186 0.417457 24.6262L0 25.8786C0.166983 25.962 0.417461 26.0455 0.584444 26.0455C2.17078 26.63 3.75712 27.3814 5.25996 28.2998C7.34725 24.5427 10.6869 21.37 14.778 19.4497Z" fill="white"/>
<path opacity="0.8" d="M38.991 19.7832C35.9018 24.4587 31.6437 28.2158 26.3838 30.7206C22.1257 32.7244 18.8695 36.4815 17.3667 40.99L16.9492 42.4094C18.5356 43.8287 20.4559 44.9141 22.5431 45.5821L23.7955 45.9995C23.879 45.8326 23.9625 45.5821 23.9625 45.4151C25.9663 39.7377 30.0574 35.1456 35.5678 32.5574C39.4084 30.7206 42.3306 27.3809 43.583 23.3734L44.0004 22.121C42.2471 21.62 40.5773 20.7851 38.991 19.7832Z" fill="white"/>
<path opacity="0.9" d="M13.6091 38.0683C15.6964 33.0588 19.537 28.9677 24.463 26.63C28.9715 24.4592 32.7287 21.1195 35.3169 17.0285C33.3966 15.1916 31.8102 13.1044 30.6414 10.5996C27.5522 16.277 22.7097 20.8691 16.7818 23.7078C13.3586 25.2941 10.6034 28.0493 8.93359 31.389C10.7704 33.1423 12.2733 35.3131 13.4421 37.7343C13.4421 37.7343 13.5256 37.9013 13.6091 38.0683Z" fill="white"/>
</svg>
